<?xml version="1.0" encoding="UTF-8"?>
<!DOCTYPE svg PUBLIC "-//W3C//DTD SVG 1.1//EN" "http://www.w3.org/Graphics/SVG/1.1/DTD/svg11.dtd">
<!-- Creator: CorelDRAW 2019 (64-Bit) -->
<svg xmlns="http://www.w3.org/2000/svg" xml:space="preserve" width="100.616mm" height="29.1966mm" version="1.1" style="shape-rendering:geometricPrecision; text-rendering:geometricPrecision; image-rendering:optimizeQuality; fill-rule:evenodd; clip-rule:evenodd"
viewBox="0 0 3408.48 989.07"
 xmlns:xlink="http://www.w3.org/1999/xlink"
 xmlns:xodm="http://www.corel.com/coreldraw/odm/2003">
 <defs>
  <style type="text/css">
   <![CDATA[
    .fil0 {fill:#FEFEFE}
   ]]>
  </style>
 </defs>
 <g id="Слой_x0020_1">
  <metadata id="CorelCorpID_0Corel-Layer"/>
  <path class="fil0" d="M494.53 0c273.12,0 494.53,221.41 494.53,494.53 0,104.68 -32.55,201.74 -88.04,281.67 -67.13,18.24 -129.49,14.94 -181.87,-4.17 -46.66,-17.02 -85.46,-46.65 -112.6,-84.72 -27.16,-38.08 -42.74,-84.69 -42.96,-135.65 -0.25,-57.45 18.96,-120.68 62.94,-184.03 7.47,-10.83 4.76,-25.67 -6.07,-33.14 -4.38,-3.02 -9.42,-4.38 -14.36,-4.2 -75.03,-0.29 -149.51,-0.37 -224.5,0 -4.93,-0.17 -9.94,1.19 -14.31,4.2 -10.83,7.47 -13.54,22.32 -6.07,33.14 43.97,63.35 63.19,126.58 62.94,184.03 -0.22,50.96 -15.81,97.57 -42.96,135.65 -27.14,38.07 -65.94,67.7 -112.6,84.72 -51.96,18.95 -113.74,22.36 -180.25,4.6 -55.68,-80.02 -88.35,-177.24 -88.35,-282.11 0,-273.12 221.41,-494.53 494.53,-494.53zm927.99 390.04l-12.62 0c-11.57,0 -21.56,2.76 -30.18,7.36 -8.67,4.63 -16.04,11.17 -22.31,18.67 -0.83,0.99 -2.09,2.36 -3.86,3.16 -2.22,1.01 -4.81,1.1 -7.5,-1.16l-0.39 -0.34 -0.29 -0.46c-5.43,-8.62 -13.48,-15.36 -23.28,-19.97 -10.12,-4.76 -22.12,-7.27 -35.08,-7.27l-12.62 0c-25.9,0 -39.54,14.09 -49.05,23.92l-2.7 2.76c-1.23,1.23 -3,2.22 -4.51,2.7 -0.83,0.27 -1.66,0.42 -2.36,0.42 -1.52,0 -2.78,-0.57 -3.59,-1.79l-0.08 -0.15c-0.3,-0.5 -0.5,-1.1 -0.55,-1.74 -0.15,-2.06 -0.3,-6.22 -0.43,-10.83l-0.23 -11.36 -76.57 0 0 187.39 80.15 0 0 -113.59c0,-7.26 3.52,-13.34 8.79,-17.71 5.64,-4.69 13.35,-7.39 20.76,-7.39 7.39,0 15.09,2.73 20.73,7.41 5.28,4.38 8.82,10.47 8.82,17.69l0 113.59 76.42 0 0 -113.59c0,-7.26 3.53,-13.34 8.79,-17.71 5.65,-4.69 13.36,-7.39 20.76,-7.39 7.38,0 15.07,2.72 20.72,7.41 5.29,4.37 8.82,10.47 8.82,17.7l0 113.59 80.15 0 0 -132.14c0,-15.62 -7.61,-30.58 -19.89,-41.54 -12.03,-10.74 -28.55,-17.65 -46.81,-17.65zm410.06 0l-12.62 0c-11.57,0 -21.56,2.76 -30.18,7.36 -8.67,4.63 -16.04,11.17 -22.31,18.67 -0.83,0.99 -2.09,2.36 -3.86,3.16 -2.22,1.01 -4.81,1.1 -7.5,-1.16l-0.39 -0.34 -0.29 -0.46c-5.43,-8.62 -13.48,-15.36 -23.28,-19.97 -10.12,-4.76 -22.12,-7.27 -35.08,-7.27l-12.62 0c-25.9,0 -39.54,14.09 -49.05,23.92l-2.7 2.76c-1.23,1.23 -3,2.22 -4.51,2.7 -0.83,0.27 -1.66,0.42 -2.36,0.42 -1.52,0 -2.78,-0.57 -3.59,-1.79l-0.08 -0.15c-0.3,-0.5 -0.5,-1.1 -0.55,-1.74 -0.15,-2.06 -0.3,-6.22 -0.43,-10.83l-0.23 -11.36 -76.57 0 0 187.39 80.15 0 0 -113.59c0,-7.26 3.52,-13.34 8.79,-17.71 5.64,-4.69 13.35,-7.39 20.76,-7.39 7.39,0 15.09,2.73 20.73,7.41 5.28,4.38 8.82,10.47 8.82,17.69l0 113.59 76.42 0 0 -113.59c0,-7.26 3.53,-13.34 8.79,-17.71 5.65,-4.69 13.36,-7.39 20.76,-7.39 7.38,0 15.07,2.72 20.72,7.41 5.29,4.37 8.82,10.47 8.82,17.7l0 113.59 80.15 0 0 -132.14c0,-15.62 -7.61,-30.58 -19.89,-41.54 -12.03,-10.74 -28.55,-17.65 -46.81,-17.65zm1546.11 195.84l0 -179.14 29.78 0 0 179.14 -29.78 0zm0 -213.06l0 -34.45 29.78 0 0 34.45 -29.78 0zm-113.58 213.06l0 -179.14 27.17 0 0 27.21c12.88,-24 43.44,-44.25 70.1,-26.98l-3.55 22.77c-19.42,-8.97 -41.93,2.35 -48.95,11.01 -4.19,5.16 -8.79,11.3 -11.23,21.11 -2.53,9.8 -3.75,19.96 -3.75,30.47l0 93.55 -29.78 0zm-74.39 -22.26c-20.47,17.67 -42.24,26.5 -65.41,26.5 -18.38,0 -33.1,-4.59 -44.07,-13.87 -10.98,-9.28 -16.46,-21.82 -16.46,-37.72 0,-9.18 1.92,-17.31 5.84,-24.64 3.92,-7.24 10.45,-13.69 19.42,-19.26 9.06,-5.65 23.87,-9.72 44.42,-12.37 24.73,-3.09 42.59,-6.53 53.65,-10.34l0 -8.04c0,-24.29 -14.2,-36.48 -42.59,-36.48 -15.51,0 -26.39,2.92 -32.58,8.83 -6.27,5.92 -10.8,14.49 -13.68,25.62l-29.26 -3.89c7.67,-37.01 34.23,-55.47 79.69,-55.47 12.8,0 23.69,1.41 32.84,4.15 9.15,2.74 16.55,6.89 22.21,12.37 5.75,5.57 9.41,11.75 11.15,18.64 1.65,6.89 2.52,17.75 2.52,32.6l0 78.88c0,3.8 0.7,9.36 2.18,16.61 1.39,7.24 3.83,13.96 7.23,20.14l-31.36 0c-2.96,-6.36 -4.87,-13.78 -5.75,-22.26zm-2.61 -67.84c-10.54,4.33 -26.83,8.13 -48.86,11.4 -17.85,2.56 -29.35,6.45 -34.4,11.66 -5.14,5.21 -7.66,11.48 -7.66,18.9 0,18.99 11.84,28.53 35.45,28.53 8.28,0 15.76,-1.06 22.39,-3.27 6.62,-2.12 12.37,-5.47 17.16,-9.98 4.87,-4.51 8.71,-10.07 11.58,-16.69 2.87,-6.63 4.36,-16.43 4.36,-29.42l0 -11.13zm-179.16 90.1l0 -22.44c-12.09,17.75 -29.87,26.68 -53.31,26.68 -25.4,0 -45.4,-9.01 -59.91,-27.03 -14.61,-18.02 -21.86,-40.28 -21.86,-66.69 0,-19.43 3.34,-36.31 10.14,-50.44 6.79,-14.13 16,-24.91 27.72,-32.33 11.72,-7.42 25.86,-11.13 42.52,-11.13 22.33,0 39.82,8.21 52.48,24.56l0 -88.69 31.81 0 0 247.51 -29.58 0zm-102.16 -89.48c0,13.52 2.05,25.44 6.14,35.86 4.19,10.34 10.15,18.46 17.87,24.29 7.82,5.74 17.12,8.66 27.91,8.66 15.72,0 28.1,-6.01 37.21,-18.02 9.02,-12.01 13.58,-28.09 13.58,-48.14 0,-22.35 -4.56,-39.84 -13.77,-52.56 -9.12,-12.72 -21.96,-19.08 -38.43,-19.08 -33.68,0 -50.52,22.97 -50.52,68.99zm-95.82 67.22c-20.47,17.67 -42.24,26.5 -65.41,26.5 -18.38,0 -33.1,-4.59 -44.07,-13.87 -10.98,-9.28 -16.46,-21.82 -16.46,-37.72 0,-9.18 1.92,-17.31 5.84,-24.64 3.92,-7.24 10.45,-13.69 19.42,-19.26 9.06,-5.65 23.87,-9.72 44.42,-12.37 24.73,-3.09 42.59,-6.53 53.65,-10.34l0 -8.04c0,-24.29 -14.2,-36.48 -42.59,-36.48 -15.51,0 -26.39,2.92 -32.58,8.83 -6.27,5.92 -10.8,14.49 -13.68,25.62l-29.26 -3.89c7.67,-37.01 34.23,-55.47 79.69,-55.47 12.8,0 23.69,1.41 32.84,4.15 9.15,2.74 16.55,6.89 22.21,12.37 5.75,5.57 9.41,11.75 11.15,18.64 1.65,6.89 2.52,17.75 2.52,32.6l0 78.88c0,3.8 0.7,9.36 2.18,16.61 1.39,7.24 3.83,13.96 7.23,20.14l-31.36 0c-2.96,-6.36 -4.88,-13.78 -5.75,-22.26zm-2.61 -67.84c-10.54,4.33 -26.83,8.13 -48.86,11.4 -17.86,2.56 -29.35,6.45 -34.4,11.66 -5.14,5.21 -7.66,11.48 -7.66,18.9 0,18.99 11.84,28.53 35.44,28.53 8.28,0 15.77,-1.06 22.39,-3.27 6.62,-2.12 12.37,-5.47 17.16,-9.98 4.87,-4.51 8.71,-10.07 11.58,-16.69 2.87,-6.63 4.36,-16.43 4.36,-29.42l0 -11.13zm-302.75 159l0 -248.04 29.52 0 0 23.32c13.74,-18.37 31.94,-27.56 54.49,-27.56 26.36,0 46.32,9.1 59.69,27.21 13.37,18.11 20.05,39.84 20.05,65.19 0,31.71 -8.36,55.56 -25.16,71.37 -16.7,15.9 -35.64,23.85 -56.8,23.85 -20.52,0 -36.95,-7.6 -49.48,-22.79l0 87.45 -32.3 0zm29.52 -157.41c0,13.78 1.95,25.79 5.85,35.95 3.8,10.25 9.56,18.11 16.99,23.58 7.52,5.57 16.52,8.3 27.2,8.3 16.89,0 29.71,-6.71 38.34,-20.23 8.63,-13.43 12.99,-30.21 12.99,-50.26 0,-20.14 -4.55,-36.66 -13.55,-49.29 -9,-12.72 -21.16,-19.08 -36.48,-19.08 -16.15,0 -28.77,6.98 -37.78,20.85 -9.01,13.96 -13.55,30.65 -13.55,50.17zm-329.62 88.51l0 -179.14 28.96 0 0 24.91c13.19,-19.43 32.22,-29.15 57.01,-29.15 27.76,0 45.49,10.42 53.29,31.27 15.04,-20.85 34.35,-31.27 58.11,-31.27 38.91,0 58.31,20.05 58.31,60.25l0 123.14 -31.75 0 0 -112.98c0,-29.24 -11.23,-43.9 -33.7,-43.9 -30.64,0 -45.96,17.58 -45.96,52.73l0 104.15 -32.31 0 0 -116.34c0,-27.03 -11.14,-40.54 -33.33,-40.54 -10.31,0 -18.85,2.21 -25.72,6.62 -6.87,4.33 -12.07,10.96 -15.51,19.7 -3.43,8.83 -5.11,21.29 -5.11,37.54l0 93.02 -32.31 0zm-58.56 -22.26c-20.47,17.67 -42.24,26.5 -65.41,26.5 -18.38,0 -33.1,-4.59 -44.07,-13.87 -10.98,-9.28 -16.46,-21.82 -16.46,-37.72 0,-9.18 1.92,-17.31 5.84,-24.64 3.92,-7.24 10.45,-13.69 19.42,-19.26 9.06,-5.65 23.87,-9.72 44.42,-12.37 24.74,-3.09 42.59,-6.53 53.66,-10.34l0 -8.04c0,-24.29 -14.2,-36.48 -42.59,-36.48 -15.51,0 -26.39,2.92 -32.58,8.83 -6.27,5.92 -10.8,14.49 -13.68,25.62l-29.27 -3.89c7.67,-37.01 34.23,-55.47 79.7,-55.47 12.8,0 23.69,1.41 32.84,4.15 9.15,2.74 16.55,6.89 22.21,12.37 5.75,5.57 9.41,11.75 11.15,18.64 1.65,6.89 2.53,17.75 2.53,32.6l0 78.88c0,3.8 0.7,9.36 2.18,16.61 1.39,7.24 3.83,13.96 7.23,20.14l-31.35 0c-2.96,-6.36 -4.88,-13.78 -5.75,-22.26zm-2.61 -67.84c-10.54,4.33 -26.83,8.13 -48.87,11.4 -17.85,2.56 -29.35,6.45 -34.4,11.66 -5.14,5.21 -7.66,11.48 -7.66,18.9 0,18.99 11.84,28.53 35.44,28.53 8.28,0 15.77,-1.06 22.39,-3.27 6.62,-2.12 12.37,-5.47 17.16,-9.98 4.88,-4.51 8.71,-10.07 11.59,-16.69 2.87,-6.63 4.36,-16.43 4.36,-29.42l0 -11.13zm-188.66 90.1l0 -247.51 29.78 0 0 247.51 -29.78 0zm-1256.21 -51.52c-0.57,-13.15 9.63,-24.27 22.78,-24.83 13.15,-0.57 24.27,9.63 24.83,22.78 1.19,25.58 14.32,40.38 31.13,46.03 11.41,3.83 24.57,4.03 37.33,0.99l0 -0.09c12.99,-3.1 25.28,-9.44 34.65,-18.64 16.63,-16.31 24.27,-42.78 10.19,-77.66 -1.02,-2.53 -2.14,-4.91 -3.35,-7.12 -10.77,-19.75 -31.15,-34.82 -54.61,-42.87 -23.66,-8.12 -49.91,-8.88 -72.12,0.08 -2.9,1.17 -5.64,2.45 -8.19,3.84 -32.39,17.66 -52.53,43.52 -61.73,72.05 -7.62,23.62 -7.91,49.23 -1.6,73.69 6.36,24.64 19.49,48.14 38.66,67.35 26.43,26.48 64.5,44.66 112.39,46.31 13.15,0.41 23.47,11.41 23.06,24.55 -0.41,13.15 -11.41,23.47 -24.55,23.06 -61.16,-2.11 -110.24,-25.79 -144.69,-60.32 -25.19,-25.24 -42.51,-56.37 -50.98,-89.2 -8.52,-33.01 -8.06,-67.76 2.34,-100.02 12.78,-39.64 40.32,-75.33 84.32,-99.31 4.4,-2.4 8.82,-4.49 13.23,-6.27 33.25,-13.41 71.51,-12.63 105.35,-1.02 34.05,11.69 64.21,34.59 80.94,65.29 2.2,4.03 4.13,8.09 5.77,12.16 22.63,56.06 8.31,100.62 -21.03,129.38 -15.86,15.55 -36.06,26.14 -57.06,31.15l-0.02 -0.09c-21.22,5.06 -43.57,4.56 -63.45,-2.11 -34.49,-11.59 -61.36,-40.4 -63.62,-89.17zm-251.13 -278.23c5.21,12.12 -0.39,26.17 -12.51,31.37 -12.12,5.21 -26.17,-0.39 -31.37,-12.51l-54.95 -127.72c-5.21,-12.12 0.39,-26.17 12.51,-31.37 6.72,-2.89 14.03,-2.45 20.1,0.58l117.3 48.52 117.3 -48.52c6.07,-3.03 13.38,-3.46 20.1,-0.58 12.12,5.21 17.72,19.26 12.51,31.37l-54.95 127.72c-5.21,12.12 -19.26,17.72 -31.37,12.51 -12.12,-5.21 -17.72,-19.26 -12.51,-31.37l31.77 -73.85c-23.18,9.59 -53.69,25.29 -76.91,31.56 -1.52,0.39 -3.04,0.63 -4.54,0.71 -0.86,0.07 -1.94,0.07 -2.8,0 -1.5,-0.09 -3.01,-0.32 -4.51,-0.71 -23.22,-6.25 -53.76,-21.98 -76.94,-31.57l31.77 73.85zm406.18 577.43c-90.18,95.73 -218.1,155.5 -359.99,155.5 -141.82,0 -269.67,-59.7 -359.84,-155.34 54.41,6 105.28,-0.5 150.15,-16.87 55.9,-20.39 102.49,-56.03 135.2,-101.9 32.7,-45.86 51.47,-101.9 51.74,-163.1 0.24,-55.28 -14.64,-114.62 -48.06,-174.16l55 -0.27 85.3 0.32c-33.4,59.52 -48.27,118.84 -48.03,174.11 0.27,61.19 19.03,117.24 51.74,163.1 32.71,45.87 79.29,81.51 135.2,101.9 45.28,16.52 96.65,22.99 151.62,16.71zm-611.68 -301.26c0.57,-13.15 11.69,-23.35 24.83,-22.78 13.15,0.57 23.35,11.69 22.78,24.83 -2.26,48.76 -29.13,77.58 -63.62,89.17 -19.88,6.67 -42.23,7.17 -63.45,2.11l-0.02 0.09c-21,-5.01 -41.2,-15.6 -57.06,-31.15 -29.34,-28.76 -43.65,-73.32 -21.03,-129.38 1.64,-4.07 3.58,-8.13 5.77,-12.16 16.73,-30.7 46.89,-53.6 80.94,-65.29 33.84,-11.62 72.11,-12.4 105.35,1.02 4.4,1.78 8.82,3.87 13.23,6.27 44,23.99 71.54,59.68 84.32,99.31 10.4,32.26 10.86,67.01 2.34,100.02 -8.47,32.83 -25.79,63.96 -50.98,89.2 -34.46,34.53 -83.54,58.21 -144.69,60.32 -13.15,0.41 -24.14,-9.92 -24.55,-23.06 -0.41,-13.15 9.92,-24.14 23.06,-24.55 47.89,-1.65 85.96,-19.83 112.39,-46.31 19.17,-19.2 32.29,-42.7 38.66,-67.35 6.31,-24.46 6.02,-50.07 -1.6,-73.69 -9.2,-28.53 -29.34,-54.39 -61.73,-72.05 -2.55,-1.39 -5.29,-2.67 -8.19,-3.84 -22.21,-8.96 -48.45,-8.2 -72.12,-0.08 -23.46,8.05 -43.85,23.12 -54.61,42.87 -1.2,2.21 -2.32,4.58 -3.35,7.12 -14.08,34.88 -6.44,61.35 10.19,77.66 9.37,9.19 21.66,15.54 34.65,18.64l-0.02 0.09c12.78,3.05 25.94,2.84 37.35,-0.99 16.81,-5.65 29.94,-20.44 31.13,-46.03z"/>
 </g>
</svg>
